<?xml version="1.0" encoding="UTF-8"?>
<svg version="1.1" xmlns="http://www.w3.org/2000/svg" width="500" height="500">
<path d="M0 0 C165 0 330 0 500 0 C500 165 500 330 500 500 C335 500 170 500 0 500 C0 335 0 170 0 0 Z " fill="#16425B" transform="translate(0,0)"/>
<path d="M0 0 C0.76506866 -0.00040283 1.53013733 -0.00080566 2.31838989 -0.0012207 C24.04566475 0.0642986 43.5662909 4.30920082 63.3125 13.4375 C63.9837793 13.74478027 64.65505859 14.05206055 65.34667969 14.36865234 C101.56566666 31.15641899 128.81446392 61.96603585 142.54248047 99.24462891 C155.3980374 135.85484209 153.61540099 176.71470213 137.29296875 211.8984375 C135.40928739 215.80782024 133.39073605 219.62811475 131.3125 223.4375 C130.82136719 224.34628906 130.33023437 225.25507813 129.82421875 226.19140625 C111.09196144 259.06519866 78.98609448 282.14165821 43.3125 293.4375 C36.72646092 295.18936846 30.04984289 296.43270662 23.3125 297.4375 C22.21075439 297.6118457 21.10900879 297.78619141 19.97387695 297.96582031 C13.83417341 298.75677232 7.68224096 298.68210761 1.5 298.6875 C0.4603006 298.68851212 0.4603006 298.68851212 -0.60040283 298.68954468 C-11.54802887 298.67262628 -22.02960576 298.07837094 -32.6875 295.4375 C-33.368125 295.27652832 -34.04875 295.11555664 -34.75 294.94970703 C-66.95960678 287.13016397 -96.67520869 267.83994933 -116.6875 241.4375 C-117.35136719 240.58929688 -118.01523438 239.74109375 -118.69921875 238.8671875 C-127.83237782 226.845151 -134.68661502 213.65362218 -139.6875 199.4375 C-139.91421387 198.79844727 -140.14092773 198.15939453 -140.37451172 197.50097656 C-141.99290125 192.85951395 -143.40552618 188.18243771 -144.6875 183.4375 C-145.00976562 182.2515625 -145.33203125 181.065625 -145.6640625 179.84375 C-150.06551378 159.93438158 -149.97025996 135.12778712 -144.6875 115.4375 C-144.49414062 114.674375 -144.30078125 113.91125 -144.1015625 113.125 C-139.73340515 96.08379355 -132.90151332 79.83503076 -122.6875 65.4375 C-122.02363281 64.49003906 -121.35976562 63.54257813 -120.67578125 62.56640625 C-112.07680415 50.69456892 -102.38484536 40.31252075 -90.6875 31.4375 C-89.8625 30.78523438 -89.0375 30.13296875 -88.1875 29.4609375 C-70.88200297 16.21801142 -50.04401968 6.753604 -28.6875 2.4375 C-27.83961914 2.2619458 -26.99173828 2.0863916 -26.11816406 1.90551758 C-17.41438588 0.27492254 -8.82276571 -0.00478089 0 0 Z " fill="#FEFEFE" transform="translate(248.6875,100.5625)"/>
<path d="M0 0 C0.77680115 -0.00705963 1.55360229 -0.01411926 2.35394287 -0.02139282 C45.60630701 -0.32531785 85.70594754 9.0823251 120.51171875 36.203125 C121.84783203 37.20666016 121.84783203 37.20666016 123.2109375 38.23046875 C140.83483246 51.95550503 155.5001368 68.80084356 166.51171875 88.203125 C166.93598145 88.93998535 167.36024414 89.6768457 167.79736328 90.43603516 C177.92823725 108.21095044 184.96714476 127.02493808 188.51171875 147.203125 C188.68727295 148.1223877 188.86282715 149.04165039 189.04370117 149.98876953 C190.76456882 159.78776649 190.95492797 169.47092092 190.94921875 179.390625 C190.94928925 180.27162872 190.94935974 181.15263245 190.94943237 182.06033325 C190.79821567 231.38655166 169.66046364 275.46568331 135.05761719 310.03027344 C124.78287992 319.98236059 112.91906754 328.14179976 100.51171875 335.203125 C99.87685547 335.5650293 99.24199219 335.92693359 98.58789062 336.29980469 C83.73360108 344.68482954 68.27523295 351.29990044 51.52929688 354.78125 C50.2045323 355.05825789 48.88265034 355.34950802 47.56445312 355.65625 C35.73977288 358.36972756 23.89522637 358.49343427 11.82421875 358.515625 C11.03979401 358.51921021 10.25536926 358.52279541 9.44717407 358.52648926 C-5.26453792 358.56261284 -19.52841119 357.41133494 -33.80078125 353.578125 C-34.77370117 353.31870117 -35.74662109 353.05927734 -36.74902344 352.79199219 C-58.53476591 346.74316124 -79.7298319 336.21423149 -97.48828125 322.203125 C-98.02614258 321.77950684 -98.56400391 321.35588867 -99.11816406 320.91943359 C-119.96760977 304.29115641 -135.96495683 284.72957121 -148.48828125 261.203125 C-148.99415771 260.26533203 -148.99415771 260.26533203 -149.51025391 259.30859375 C-163.11472172 233.67678181 -167.79664441 205.43505513 -167.92578125 176.765625 C-167.93544922 175.58064926 -167.93544922 175.58064926 -167.9453125 174.37173462 C-168.02140492 159.14433295 -166.11704782 144.3373528 -161.80078125 129.703125 C-161.54731934 128.83349121 -161.29385742 127.96385742 -161.03271484 127.06787109 C-158.30785229 118.0792573 -154.64918127 109.61152845 -150.48828125 101.203125 C-150.15538086 100.53023438 -149.82248047 99.85734375 -149.47949219 99.1640625 C-141.08404851 82.42241528 -130.26082001 67.87423432 -117.48828125 54.203125 C-116.72902344 53.38972656 -115.96976563 52.57632813 -115.1875 51.73828125 C-108.50082357 44.81084069 -101.22027427 38.90474472 -93.48828125 33.203125 C-92.92044922 32.7803125 -92.35261719 32.3575 -91.76757812 31.921875 C-66.11366356 13.07169667 -32.0186925 0.19536132 0 0 Z M-26.48828125 34.203125 C-27.24802246 34.41743164 -28.00776367 34.63173828 -28.79052734 34.85253906 C-39.99703556 38.07315029 -50.26598524 42.63365928 -60.48828125 48.203125 C-62.07576172 49.05197266 -62.07576172 49.05197266 -63.6953125 49.91796875 C-80.63712123 59.35475605 -95.84914691 72.72261628 -107.48828125 88.203125 C-108.07867187 88.97785156 -108.6690625 89.75257813 -109.27734375 90.55078125 C-120.29322521 105.61587942 -128.21264931 122.53754463 -133.30078125 140.453125 C-133.49575195 141.13681152 -133.69072266 141.82049805 -133.89160156 142.52490234 C-137.11453022 154.56683243 -137.86329349 166.55515034 -137.80078125 178.953125 C-137.79895844 179.70358093 -137.79713562 180.45403687 -137.79525757 181.22723389 C-137.75054132 192.15635033 -137.36515027 202.59683679 -134.48828125 213.203125 C-134.3166748 213.84733398 -134.14506836 214.49154297 -133.96826172 215.15527344 C-122.98923984 255.51961303 -98.25469787 288.87493918 -61.86328125 309.828125 C-39.29058788 322.42703098 -15.11996696 328.62718639 10.69921875 328.515625 C11.70977829 328.51289078 11.70977829 328.51289078 12.74075317 328.51010132 C42.17806516 328.3766175 71.14101838 320.1281336 95.51171875 303.203125 C96.99478516 302.17445313 96.99478516 302.17445313 98.5078125 301.125 C110.34607295 292.56573757 120.68200985 282.85226293 129.51171875 271.203125 C130.17558594 270.35492188 130.83945312 269.50671875 131.5234375 268.6328125 C144.63064191 251.37971435 154.35266848 230.49301619 158.51171875 209.203125 C158.7742041 207.91668091 158.7742041 207.91668091 159.04199219 206.60424805 C160.59524653 198.29257557 160.87092385 190.14151214 160.82421875 181.703125 C160.8220636 181.00102905 160.81990845 180.29893311 160.81768799 179.57556152 C160.66914273 149.3186962 153.21894744 120.16298767 135.51171875 95.203125 C134.51591797 93.78193359 134.51591797 93.78193359 133.5 92.33203125 C124.90461688 80.46515581 115.21380135 70.06423957 103.51171875 61.203125 C102.6403125 60.52765625 101.76890625 59.8521875 100.87109375 59.15625 C75.09960783 39.71460273 43.37685696 29.48978753 11.19921875 29.765625 C10.05925949 29.77018707 10.05925949 29.77018707 8.89627075 29.77484131 C-3.2775197 29.84660475 -14.75329578 30.75119509 -26.48828125 34.203125 Z " fill="#18445C" transform="translate(238.48828125,70.796875)"/>
<path d="M0 0 C0.77680115 -0.00705963 1.55360229 -0.01411926 2.35394287 -0.02139282 C45.60630701 -0.32531785 85.70594754 9.0823251 120.51171875 36.203125 C121.84783203 37.20666016 121.84783203 37.20666016 123.2109375 38.23046875 C140.83483246 51.95550503 155.5001368 68.80084356 166.51171875 88.203125 C166.93598145 88.93998535 167.36024414 89.6768457 167.79736328 90.43603516 C177.92823725 108.21095044 184.96714476 127.02493808 188.51171875 147.203125 C188.68727295 148.1223877 188.86282715 149.04165039 189.04370117 149.98876953 C190.76456882 159.78776649 190.95492797 169.47092092 190.94921875 179.390625 C190.94928925 180.27162872 190.94935974 181.15263245 190.94943237 182.06033325 C190.79821567 231.38655166 169.66046364 275.46568331 135.05761719 310.03027344 C124.78287992 319.98236059 112.91906754 328.14179976 100.51171875 335.203125 C99.87685547 335.5650293 99.24199219 335.92693359 98.58789062 336.29980469 C83.73360108 344.68482954 68.27523295 351.29990044 51.52929688 354.78125 C50.2045323 355.05825789 48.88265034 355.34950802 47.56445312 355.65625 C35.73977288 358.36972756 23.89522637 358.49343427 11.82421875 358.515625 C11.03979401 358.51921021 10.25536926 358.52279541 9.44717407 358.52648926 C-5.26453792 358.56261284 -19.52841119 357.41133494 -33.80078125 353.578125 C-34.77370117 353.31870117 -35.74662109 353.05927734 -36.74902344 352.79199219 C-58.53476591 346.74316124 -79.7298319 336.21423149 -97.48828125 322.203125 C-98.02614258 321.77950684 -98.56400391 321.35588867 -99.11816406 320.91943359 C-119.96760977 304.29115641 -135.96495683 284.72957121 -148.48828125 261.203125 C-148.99415771 260.26533203 -148.99415771 260.26533203 -149.51025391 259.30859375 C-163.11472172 233.67678181 -167.79664441 205.43505513 -167.92578125 176.765625 C-167.93544922 175.58064926 -167.93544922 175.58064926 -167.9453125 174.37173462 C-168.02140492 159.14433295 -166.11704782 144.3373528 -161.80078125 129.703125 C-161.54731934 128.83349121 -161.29385742 127.96385742 -161.03271484 127.06787109 C-158.30785229 118.0792573 -154.64918127 109.61152845 -150.48828125 101.203125 C-150.15538086 100.53023438 -149.82248047 99.85734375 -149.47949219 99.1640625 C-141.08404851 82.42241528 -130.26082001 67.87423432 -117.48828125 54.203125 C-116.72902344 53.38972656 -115.96976563 52.57632813 -115.1875 51.73828125 C-108.50082357 44.81084069 -101.22027427 38.90474472 -93.48828125 33.203125 C-92.92044922 32.7803125 -92.35261719 32.3575 -91.76757812 31.921875 C-66.11366356 13.07169667 -32.0186925 0.19536132 0 0 Z M-25.47705078 14.64746094 C-27.47043602 15.19819471 -29.47005616 15.68073024 -31.484375 16.1484375 C-64.15277605 24.10655362 -96.3435192 43.93236003 -117.48828125 70.203125 C-118.26945312 71.16992188 -119.050625 72.13671875 -119.85546875 73.1328125 C-134.74184154 91.85723456 -145.9431786 113.5413758 -152.23828125 136.640625 C-152.53641724 137.71147339 -152.53641724 137.71147339 -152.84057617 138.80395508 C-156.25734908 152.04779451 -156.90550797 165.65417076 -156.86328125 179.265625 C-156.86174042 180.0259201 -156.86019958 180.78621521 -156.85861206 181.56954956 C-156.6662318 221.70258865 -142.14576176 261.41645882 -114.56640625 290.97265625 C-112.65801234 293.02095122 -110.85203399 295.12348097 -109.05078125 297.265625 C-84.62471133 325.09349918 -44.97100012 343.47916883 -8.48828125 347.203125 C-3.06393846 347.51100376 2.36229003 347.53334213 7.79394531 347.51879883 C10.24459748 347.51564702 12.69402783 347.53916236 15.14453125 347.56445312 C25.919564 347.60801157 35.97988429 346.43169271 46.51171875 344.203125 C47.51783203 344.00533447 48.52394531 343.80754395 49.56054688 343.60375977 C84.36331925 336.5088146 119.39853041 315.28261255 141.51171875 287.203125 C141.90149902 286.70925293 142.2912793 286.21538086 142.69287109 285.70654297 C158.88742716 264.97191218 170.32062409 241.80138169 176.51171875 216.203125 C176.75728516 215.22013428 176.75728516 215.22013428 177.0078125 214.21728516 C182.94753046 189.15142991 181.39176457 159.7984157 174.51171875 135.203125 C174.27066406 134.30819336 174.02960938 133.41326172 173.78125 132.49121094 C166.48582511 106.09837091 152.03542971 82.12153805 132.91259766 62.63476562 C131.5895339 61.28264889 130.29004352 59.90758103 128.9921875 58.53125 C100.83549502 29.23737285 58.57343256 11.68739429 18.217453 10.77398682 C3.405537 10.53783333 -11.10392533 10.65661427 -25.47705078 14.64746094 Z " fill="#F9FAFB" transform="translate(238.48828125,70.796875)"/>
<path d="M0 0 C7.91658722 4.70001467 13.17394686 11.45543432 16.10546875 20.25 C17.06283361 31.2870492 16.08264167 40.35322459 9.4140625 49.59375 C3.5764574 56.12601792 -3.75281197 59.48976837 -12.35546875 60.76171875 C-22.11426128 61.24642699 -29.32893378 58.47703605 -37.0546875 52.609375 C-43.12209548 47.09589174 -46.4611638 39.49303565 -47.1328125 31.3671875 C-47.36049864 21.42089824 -45.65191604 13.30912118 -38.7421875 5.8515625 C-28.04361206 -3.42204412 -13.00662363 -6.2745521 0 0 Z " fill="#17435C" transform="translate(320.89453125,156.75)"/>
</svg>
